<svg xmlns="http://www.w3.org/2000/svg" xmlns:xlink="http://www.w3.org/1999/xlink" width="527.817" height="161.275" viewBox="0 0 527.817 161.275"><defs><style>.a{fill:none;}.b,.i,.k{opacity:0.6;}.c{clip-path:url(#a);}.d,.h,.i,.j,.k{fill:#0069b5;}.e{opacity:0.4;}.f{clip-path:url(#b);}.g{clip-path:url(#c);}.h,.i{font-size:86px;font-family:PingFangSC-Regular, PingFang SC;}.j,.k{font-size:25px;font-family:Helvetica;}.l{letter-spacing:-0.037em;}</style><clipPath id="a"><rect class="a" width="156.633" height="156.628"/></clipPath><clipPath id="b"><rect class="a" width="33.415" height="66.825"/></clipPath><clipPath id="c"><rect class="a" width="33.41" height="66.825"/></clipPath></defs><g transform="translate(-1199.584 -1870.355)"><g class="b" transform="translate(1199.584 1875.003)"><g class="c"><path class="d" d="M310.073,383.272H276.658V450.1l-18.8,18.8-18.8-18.8V383.272H205.651v33.415L179.9,390.93V338.719l25.753-26.453v33.415H310.073V312.266l26.453,26.453v51.516l-26.453,26.453Z" transform="translate(-179.896 -312.267)"/><g class="e" transform="translate(25.758 71.007)"><g class="f"><path class="d" d="M184.937,326.157v33.415l33.415,33.415V359.572Z" transform="translate(-184.937 -326.158)"/></g></g><g class="e" transform="translate(96.729 71.007)"><g class="g"><path class="d" d="M232.236,326.157v33.415L198.82,392.987V359.572Z" transform="translate(-198.823 -326.158)"/></g></g></g></g><g transform="translate(1383.745 1870.355)"><text class="h" transform="translate(1.538 91)"><tspan x="0" y="0">工一</tspan></text><text class="i" transform="translate(171.656 91)"><tspan x="0" y="0">数字</tspan></text><text class="j" transform="translate(0 137.408)"><tspan x="0" y="0">CIVIL ENGINEERING </tspan></text><text class="k" transform="translate(253.421 137.408)"><tspan x="0" y="0">C</tspan><tspan class="l" y="0">L</tspan><tspan y="0">OUD</tspan></text></g></g></svg>