<?xml version="1.0" standalone="no"?><!DOCTYPE svg PUBLIC "-//W3C//DTD SVG 1.1//EN" "http://www.w3.org/Graphics/SVG/1.1/DTD/svg11.dtd"><svg t="1733311899957" class="icon" viewBox="0 0 1024 1024" version="1.1" xmlns="http://www.w3.org/2000/svg" p-id="40482" xmlns:xlink="http://www.w3.org/1999/xlink" width="200" height="200"><path d="M887.125333 377.275733a292.420267 292.420267 0 0 0-14.779733-106.3936 158.788267 158.788267 0 0 0-100.864-90.453333 327.338667 327.338667 0 0 0-90.692267-9.557333h-337.578666a327.68 327.68 0 0 0-90.692267 9.557333 158.788267 158.788267 0 0 0-100.864 90.453333 293.9904 293.9904 0 0 0-14.813867 106.3936v337.7152a295.8336 295.8336 0 0 0 14.813867 106.3936 158.788267 158.788267 0 0 0 100.864 90.453334 327.338667 327.338667 0 0 0 90.692267 9.557333h337.578666a327.68 327.68 0 0 0 90.692267-9.557333 158.788267 158.788267 0 0 0 100.864-90.453334 293.9904 293.9904 0 0 0 14.813867-106.3936v-337.7152zM285.696 686.8992h-27.921067V520.192h27.886934v166.7072z m-13.994667-194.833067a17.3056 17.3056 0 1 1 0.273067-34.645333 17.3056 17.3056 0 0 1-0.3072 34.645333z m167.560534 199.031467c-73.6256 0-120.0128-52.599467-120.0128-136.2944s46.318933-136.465067 120.0128-136.465067c73.728 0 120.149333 52.770133 120.149333 136.465067s-46.2848 136.2944-120.149333 136.2944z m243.029333 0c-55.296 0-94.139733-30.481067-96.8704-76.049067h25.122133c2.730667 31.744 32.5632 53.248 74.0352 53.248 39.594667 0 67.9936-21.6064 67.9936-51.234133 0-24.712533-17.066667-39.389867-56.285866-49.288533l-32.836267-8.430934c-48.913067-12.4928-70.656-33.1776-70.656-68.027733 0-42.734933 38.434133-73.147733 90.453333-73.147733 51.541333 0 89.088 30.481067 90.692267 72.362666h-25.156267c-2.321067-29.7984-28.808533-49.664-66.321066-49.664-36.590933 0-63.726933 20.3776-63.726934 49.425067 0 22.698667 16.384 36.113067 55.296 46.011733l28.637867 7.3728c53.077333 13.380267 75.434667 33.757867 75.434667 70.519467 0.1024 46.4896-37.341867 76.9024-95.812267 76.9024z m-243.029333-249.5488c-57.856 0-94.3104 43.793067-94.3104 113.2544s36.4544 112.981333 94.3104 112.981333c57.856 0 94.549333-43.793067 94.549333-112.981333s-36.590933-113.2544-94.549333-113.2544z" fill="#2c2c2c" p-id="40483"></path></svg>