<?xml version="1.0" encoding="iso-8859-1"?>
<!-- Generator: Adobe Illustrator 19.0.0, SVG Export Plug-In . SVG Version: 6.00 Build 0)  -->
<!-- License: CC0. Made by SVG Repo: https://www.svgrepo.com/svg/78396/windows -->
<svg version="1.1" id="Layer_1" xmlns="http://www.w3.org/2000/svg" xmlns:xlink="http://www.w3.org/1999/xlink" x="0px" y="0px"
	 viewBox="0 0 495 495" style="enable-background:new 0 0 495 495;" xml:space="preserve">
<g>
	<polygon style="fill:#00B6BD;" points="247.5,0 247.5,40 455,40 455,455 247.5,455 247.5,495 495,495 495,0 	"/>
	<polygon style="fill:#00D7DF;" points="40,455 40,40 247.5,40 247.5,0 0,0 0,495 247.5,495 247.5,455 	"/>
	<polygon style="fill:#00D7DF;" points="216.002,236.999 216.002,117.49 90,134.601 90.116,236.999 	"/>
	<polygon style="fill:#00D7DF;" points="90.103,361.44 216.002,378.696 216.002,258.001 90.096,258.001 	"/>
	<polygon style="fill:#00D7DF;" points="405,258.001 236.999,258.001 236.999,381.371 404.958,405 	"/>
	<polygon style="fill:#00D7DF;" points="404.958,90 236.999,114.44 236.999,236.999 404.958,236.999 	"/>
</g>
</svg>
