<?xml version="1.0" standalone="no"?><!DOCTYPE svg PUBLIC "-//W3C//DTD SVG 1.1//EN" "http://www.w3.org/Graphics/SVG/1.1/DTD/svg11.dtd"><svg t="1733311189235" class="icon" viewBox="0 0 1024 1024" version="1.1" xmlns="http://www.w3.org/2000/svg" p-id="32846" xmlns:xlink="http://www.w3.org/1999/xlink" width="200" height="200"><path d="M725.333333 170.666667a128 128 0 0 1 128 128v426.666666a128 128 0 0 1-128 128H298.666667a128 128 0 0 1-128-128V298.666667a128 128 0 0 1 128-128h426.666666z m-88.96 384.384c-9.088 0-18.176 1.237333-27.264 3.712a75.946667 75.946667 0 0 0-24.405333 11.434666c-7.210667 5.12-13.013333 11.52-17.493333 19.242667-4.437333 7.722667-6.656 16.810667-6.656 27.306667 0 9.301333 1.749333 17.28 5.248 23.850666 3.541333 6.528 8.106667 12.032 13.781333 16.384 5.674667 4.394667 12.117333 7.978667 19.328 10.709334 7.168 2.773333 14.549333 5.12 22.144 6.997333 7.381333 2.133333 14.677333 4.010667 21.845333 5.717333 7.210667 1.706667 13.653333 3.712 19.328 5.973334 5.674667 2.304 10.24 5.162667 13.781334 8.618666a17.92 17.92 0 0 1 5.248 13.397334c0 5.12-1.322667 9.386667-3.968 12.714666a27.904 27.904 0 0 1-9.941334 7.850667 44.288 44.288 0 0 1-12.8 3.84 88.32 88.32 0 0 1-12.8 1.024 67.413333 67.413333 0 0 1-17.024-2.133333 42.282667 42.282667 0 0 1-14.336-6.570667 32.426667 32.426667 0 0 1-9.813333-11.562667 37.546667 37.546667 0 0 1-3.669333-17.450666H553.813333l0.170667 7.338666c0.64 9.514667 2.858667 17.92 6.613333 25.216 4.736 9.173333 11.136 16.64 19.2 22.613334 8.021333 5.888 17.322667 10.24 27.818667 12.970666s21.333333 4.138667 32.512 4.138667c13.824 0 25.984-1.621333 36.48-4.864 10.496-3.242667 19.328-7.765333 26.410667-13.568 7.082667-5.802667 12.458667-12.714667 16.042666-20.693333 3.584-8.021333 5.376-16.64 5.376-26.026667 0-11.392-2.389333-20.778667-7.253333-28.117333a60.672 60.672 0 0 0-17.152-17.536 75.349333 75.349333 0 0 0-20.053333-9.557334 192.085333 192.085333 0 0 0-15.744-4.181333 3113.045333 3113.045333 0 0 1-30.805334-7.978667 113.834667 113.834667 0 0 1-18.432-6.272 20.309333 20.309333 0 0 1-8.96-6.826666 18.389333 18.389333 0 0 1-2.261333-9.728c0-4.394667 0.938667-8.021333 2.816-10.88a24.746667 24.746667 0 0 1 7.253333-7.125334 28.757333 28.757333 0 0 1 9.813334-4.010666c3.584-0.768 7.168-1.152 10.794666-1.152 5.461333 0 10.538667 0.512 15.189334 1.450666 4.608 0.938667 8.746667 2.56 12.373333 4.864a25.173333 25.173333 0 0 1 8.618667 9.386667 36.224 36.224 0 0 1 3.84 15.146667h43.178666l-0.298666-6.826667a58.538667 58.538667 0 0 0-6.4-23.296 58.410667 58.410667 0 0 0-18.005334-20.394667 75.946667 75.946667 0 0 0-26.026666-11.605333 128.298667 128.298667 0 0 0-30.506667-3.541333z m-270.677333-0.810667a106.666667 106.666667 0 1 0 0 213.333333 106.666667 106.666667 0 0 0 0-213.333333z m0 42.666667a64 64 0 1 1 0 128 64 64 0 0 1 0-128zM321.749333 256H277.333333v213.333333h44.416V377.301333H403.626667V469.333333H448V256H403.584v81.877333H321.706667V256z m278.314667 0H533.333333v213.333333h41.429334V301.397333L618.453333 469.333333h42.922667l43.861333-167.936V469.333333h41.429334V256h-66.901334l-39.594666 145.493333-40.106667-145.493333z" fill="#4E4E4E" p-id="32847"></path></svg>