<?xml version="1.0" standalone="no"?><!DOCTYPE svg PUBLIC "-//W3C//DTD SVG 1.1//EN" "http://www.w3.org/Graphics/SVG/1.1/DTD/svg11.dtd"><svg t="1733310885456" class="icon" viewBox="0 0 1024 1024" version="1.1" xmlns="http://www.w3.org/2000/svg" p-id="19335" xmlns:xlink="http://www.w3.org/1999/xlink" width="200" height="200"><path d="M557.10000001 361.29999999v-7.39999998l-22.90000001 1.6c-6.50000001 0.4-11.4 1.8-14.69999999 4.09999999-3.30000001 2.4-4.90000001 5.6-4.90000001 9.8 0 4.10000001 1.6 7.30000001 4.90000001 9.70000001 3.2 2.4 7.6 3.6 13 3.6 3.50000001 0 6.70000001-0.50000001 9.69999999-1.6 3-1.10000001 5.6-2.50000001 7.8-4.4 2.2-1.90000001 3.90000001-4.10000001 5.2-6.70000001 1.30000001-2.70000001 1.90000001-5.6 1.90000001-8.69999999zM512 64.2C262.09999999 64.2 64.2 262.09999999 64.2 512S262.09999999 959.8 512 959.8 959.8 761.90000001 959.8 512 761.90000001 64.2 512 64.2z m86.90000001 265.4c2.10000001-5.90000001 5.10000001-11 8.99999998-15.30000001 3.90000001-4.2 8.50000001-7.50000001 13.90000001-9.79999998s11.50000001-3.4 18.2-3.40000002c6 0 11.50000001 0.90000001 16.29999999 2.70000001 4.90000001 1.8 9 4.2 12.50000001 7.30000001 3.50000001 3 6.2 6.6 8.29999999 10.59999998 2 4.10000001 3.2 8.4 3.6 12.90000001h-18c-0.50000001-2.50000001-1.30000001-4.8-2.4-6.90000001-1.2-2.10000001-2.70000001-4-4.6-5.59999998-1.90000001-1.6-4.2-2.8-6.69999999-3.70000001-2.6-0.90000001-5.50000001-1.30000001-8.70000001-1.29999999-3.8 0-7.30000001 0.8-10.4 2.29999999-3.10000001 1.50000001-5.8 3.70000001-8 6.50000001s-3.90000001 6.2-5.09999999 10.29999999c-1.2 4-1.8 8.50000001-1.8 13.4 0 5.10000001 0.6 9.70000001 1.8 13.70000001 1.2 4 2.90000001 7.4 5.2 10.19999998 2.2 2.8 4.90000001 4.90000001 8.09999999 6.40000002 3.10000001 1.50000001 6.6 2.2 10.30000001 2.2 6.2 0 11.2-1.4 15-4.30000001 3.90000001-2.90000001 6.4-7.10000001 7.6-12.70000001h18c-0.50000001 4.90000001-1.90000001 9.4-4.10000001 13.50000001-2.2 4.10000001-5.10000001 7.50000001-8.49999999 10.4-3.50000001 2.90000001-7.6 5.10000001-12.4 6.6-4.70000001 1.6-10 2.4-15.6 2.4-6.70000001 0-12.8-1.10000001-18.30000001-3.30000001-5.4-2.2-10.10000001-5.4-14-9.59999998-3.90000001-4.2-6.90000001-9.2-9-15.20000002-2.10000001-6-3.2-12.70000001-3.2-20.19999998-0.10000001-7.50000001 0.90000001-14.10000001 3-20.10000001z m-255.80000002-27.2h18.00000002v16h0.29999999c1.10000001-2.70000001 2.50000001-5.10000001 4.30000001-7.10000001 1.8-2.10000001 3.8-3.90000001 6.09999999-5.39999998 2.30000001-1.50000001 4.90000001-2.6 7.6-3.4 2.8-0.8 5.70000001-1.2 8.8-1.2 6.6 0 12.2 1.6 16.70000001 4.69999999 4.6 3.2 7.8 7.70000001 9.69999999 13.6h0.50000001c1.2-2.8 2.8-5.4 4.8-7.6 2-2.2 4.2-4.2 6.8-5.8 2.50000001-1.6 5.4-2.8 8.4-3.6 3-0.8 6.2-1.30000001 9.6-1.30000001 4.6 0 8.8 0.70000001 12.6 2.2 3.8 1.50000001 7 3.6 9.69999999 6.30000001 2.70000001 2.70000001 4.8 6 6.2 9.8 1.4 3.8 2.2 8.10000001 2.2 12.8v64.30000001h-18.8V337c0-6.2-1.6-11-4.8-14.4-3.2-3.4-7.70000001-5.10000001-13.6-5.10000001-2.90000001 0-5.50000001 0.50000001-8 1.50000001-2.4 1-4.50000001 2.4-6.2 4.30000001-1.70000001 1.8-3.10000001 4-4.09999999 6.6-1 2.50000001-1.50000001 5.30000001-1.50000001 8.4v58.6H400v-61.4c0-2.70000001-0.4-5.2-1.30000001-7.4-0.8-2.2-2-4.10000001-3.6-5.70000001-1.6-1.6-3.50000001-2.8-5.69999999-3.6-2.2-0.8-4.70000001-1.30000001-7.50000001-1.29999999-2.90000001 0-5.6 0.50000001-8.09999999 1.6s-4.6 2.6-6.30000001 4.49999999c-1.8 1.90000001-3.2 4.2-4.09999999 6.8-0.90000001 2.6-2.50000001 5.4-2.49999999 8.50000001v57.89999999h-17.80000002v-94.4zM384 754.30000001c-82.6 0-134.30000001-57.4-134.30000001-148.90000001S301.4 456.29999999 384 456.29999999s134.10000001 57.6 134.10000001 149.10000001S466.49999999 754.30000001 384 754.30000001z m152.8-357.70000001c-3 0.8-6.2 1.2-9.30000001 1.2-4.70000001 0-9-0.70000001-12.89999999-2-3.90000001-1.30000001-7.30000001-3.2-10.10000001-5.70000001-2.8-2.4-5-5.4-6.59999998-8.79999998-1.6-3.50000001-2.4-7.30000001-2.4-11.50000001 0-8.30000001 3.10000001-14.8 9.29999999-19.4 6.2-4.70000001 15.10000001-7.4 26.8-8.10000001l25.50000001-1.49999999v-7.30000001c0-5.4-1.70000001-9.6-5.20000002-12.39999998-3.50000001-2.8-8.30000001-4.30000001-14.69999999-4.30000001-2.50000001 0-4.90000001 0.30000001-7.10000001 0.89999999-2.2 0.6-4.10000001 1.6-5.79999998 2.70000001-1.70000001 1.2-3.10000001 2.6-4.2 4.29999999-1.10000001 1.6-1.90000001 3.50000001-2.30000001 5.50000001h-17.70000001c0.10000001-4.2 1.10000001-8 3.10000001-11.6s4.6-6.6 7.90000001-9.2 7.30000001-4.6 11.79999998-6.10000001c4.50000001-1.4 9.50000001-2.2 14.80000002-2.19999998 5.70000001 0 10.90000001 0.70000001 15.59999998 2.2 4.70000001 1.50000001 8.70000001 3.50000001 12.00000002 6.2 3.30000001 2.70000001 5.8 5.90000001 7.59999998 9.69999999 1.8 3.8 2.70000001 8.10000001 2.70000001 12.70000001v64.79999998h-18V381h-0.50000001c-1.30000001 2.50000001-3 4.90000001-5.09999999 6.90000001-2.10000001 2.10000001-4.4 3.8-6.90000001 5.29999999-2.4 1.50000001-5.2 2.6-8.29999999 3.4z m118.8 357.70000001c-63 0-105.8-33-108.70000001-84.80000002h41.00000002c3.2 29.6 31.8 49.2 71 49.2 37.6 0 64.6-19.6 64.6-46.4 0-23.2-16.4-37.2-54.4-46.8l-37-9.2c-53.2-13.2-77.4-37.4-77.40000002-77.2 0-49 42.8-83 103.70000001-83 59.6 0 101.10000001 34.2 102.69999999 83.4h-40.6c-2.8-29.6-27-47.8-63-47.8-35.8 0-60.6 18.4-60.6 45 0 21 15.6 33.4 53.6 43l31.2 7.8c59.4 14.4 83.8 37.8 83.8 79.8 0 53.6-42.30000001 87-109.89999999 87zM384 493c-56.6 0-91.90000001 43.4-91.90000001 112.30000001 0 68.8 35.4 112.10000001 91.90000001 112.09999999 56.4 0 91.90000001-43.4 91.90000001-112.10000001 0-68.90000001-35.6-112.30000001-91.90000001-112.29999999z" fill="#2c2c2c" p-id="19336"></path></svg>