<?xml version="1.0" standalone="no"?><!DOCTYPE svg PUBLIC "-//W3C//DTD SVG 1.1//EN" "http://www.w3.org/Graphics/SVG/1.1/DTD/svg11.dtd"><svg t="1733311944573" class="icon" viewBox="0 0 1024 1024" version="1.1" xmlns="http://www.w3.org/2000/svg" p-id="41737" xmlns:xlink="http://www.w3.org/1999/xlink" width="200" height="200"><path d="M557.12 361.216V353.92l-22.912 1.6a28.928 28.928 0 0 0-14.72 4.096 11.392 11.392 0 0 0-4.864 9.792c0 4.096 1.6 7.296 4.864 9.728 3.2 2.368 7.616 3.584 12.992 3.584a27.84 27.84 0 0 0 17.536-6.016 19.776 19.776 0 0 0 7.104-15.36zM512 64C262.016 64 64 262.016 64 512s198.016 448 448 448 448-198.016 448-448-198.016-448-448-448z m86.912 265.536a44.928 44.928 0 0 1 9.024-15.36 40.32 40.32 0 0 1 13.888-9.792 46.144 46.144 0 0 1 18.24-3.392c6.016 0 11.52 0.896 16.32 2.688 4.864 1.856 8.96 4.224 12.48 7.36a35.52 35.52 0 0 1 11.904 23.488h-17.984a20.544 20.544 0 0 0-7.04-12.48 21.76 21.76 0 0 0-6.656-3.712 26.496 26.496 0 0 0-19.136 0.96 22.784 22.784 0 0 0-8 6.528 30.08 30.08 0 0 0-5.12 10.24 46.72 46.72 0 0 0-1.792 13.44c0 5.12 0.64 9.728 1.792 13.76a28.928 28.928 0 0 0 5.248 10.176 23.552 23.552 0 0 0 18.432 8.576 24.064 24.064 0 0 0 14.976-4.288 20.352 20.352 0 0 0 7.552-12.672h18.048a36.032 36.032 0 0 1-12.608 23.872 35.968 35.968 0 0 1-12.416 6.592 48.64 48.64 0 0 1-15.616 2.432 48.896 48.896 0 0 1-18.304-3.328 38.912 38.912 0 0 1-14.016-9.6 42.624 42.624 0 0 1-8.96-15.168 60.8 60.8 0 0 1-3.2-20.224 57.792 57.792 0 0 1 2.944-20.096zM343.04 302.336h17.984v16h0.32a28.48 28.48 0 0 1 26.816-17.088 28.8 28.8 0 0 1 16.64 4.672c4.672 3.2 7.872 7.68 9.728 13.568h0.512a31.68 31.68 0 0 1 29.632-18.304c4.608 0 8.832 0.704 12.608 2.24a26.88 26.88 0 0 1 15.936 16.128c1.344 3.776 2.176 8.064 2.176 12.8v64.32h-18.816v-59.776a20.224 20.224 0 0 0-4.8-14.4c-3.2-3.392-7.68-5.12-13.632-5.12a21.12 21.12 0 0 0-8 1.536 16.896 16.896 0 0 0-6.208 4.288 22.4 22.4 0 0 0-5.632 14.976v58.688H400v-61.44a19.52 19.52 0 0 0-1.28-7.424 15.36 15.36 0 0 0-9.28-9.28 21.76 21.76 0 0 0-15.616 0.32 18.112 18.112 0 0 0-6.336 4.48 18.752 18.752 0 0 0-4.096 6.784c-0.896 2.56-2.496 5.44-2.496 8.512V396.8H343.04V302.336zM384 754.432c-82.688 0-134.4-57.472-134.4-148.992 0-91.52 51.712-149.12 134.4-149.12 82.56 0 134.08 57.6 134.08 149.12 0 91.52-51.584 148.992-134.144 148.992z m152.832-357.888a40.576 40.576 0 0 1-22.208-0.832 28.544 28.544 0 0 1-10.112-5.696 26.176 26.176 0 0 1-8.96-20.288c0-8.32 3.072-14.784 9.216-19.392 6.208-4.736 15.104-7.424 26.88-8.128l25.472-1.472V333.44c0-5.44-1.728-9.6-5.184-12.416a22.784 22.784 0 0 0-14.72-4.288 27.072 27.072 0 0 0-7.104 0.896 20.672 20.672 0 0 0-5.76 2.688 15.616 15.616 0 0 0-6.528 9.792h-17.728a24.512 24.512 0 0 1 3.072-11.584 30.272 30.272 0 0 1 7.936-9.216 38.784 38.784 0 0 1 11.776-6.08 49.92 49.92 0 0 1 14.848-2.24 51.2 51.2 0 0 1 15.616 2.24 35.84 35.84 0 0 1 11.968 6.208 27.584 27.584 0 0 1 10.304 22.4v64.832h-17.984v-15.744h-0.512a26.24 26.24 0 0 1-5.12 6.912 35.2 35.2 0 0 1-15.168 8.704z m118.848 357.888c-63.04 0-105.856-33.024-108.8-84.864h41.024c3.2 29.632 31.872 49.28 71.04 49.28 37.632 0 64.64-19.648 64.64-46.464 0-23.232-16.384-37.248-54.4-46.848l-37.056-9.216c-53.184-13.184-77.44-37.376-77.44-77.184 0-49.024 42.88-83.072 103.808-83.072 59.584 0 101.12 34.24 102.72 83.456h-40.64c-2.816-29.632-27.008-47.808-63.04-47.808-35.84 0-60.608 18.368-60.608 44.992 0 20.992 15.616 33.408 53.632 43.008l31.232 7.808c59.392 14.4 83.84 37.824 83.84 79.872 0 53.632-42.368 87.04-109.952 87.04zM383.936 492.992c-56.64 0-91.904 43.392-91.904 112.32 0 68.864 35.392 112.192 91.904 112.192 56.448 0 91.968-43.456 91.968-112.192 0-68.928-35.648-112.32-91.968-112.32z" fill="#2c2c2c" p-id="41738"></path></svg>