<?xml version="1.0" standalone="no"?><!DOCTYPE svg PUBLIC "-//W3C//DTD SVG 1.1//EN" "http://www.w3.org/Graphics/SVG/1.1/DTD/svg11.dtd"><svg t="1733311126296" class="icon" viewBox="0 0 1024 1024" version="1.1" xmlns="http://www.w3.org/2000/svg" p-id="31004" xmlns:xlink="http://www.w3.org/1999/xlink" width="200" height="200"><path d="M266.338463 729.631646c0 32.04074 25.973558 58.014298 58.014298 58.014298l33.367969 0 0 115.956965c0 30.051433 24.361851 54.414307 54.413284 54.414307 30.052456 0 54.41533-24.362874 54.41533-54.414307L466.549344 787.645944l86.823438 0 0 115.957988c0 30.051433 24.361851 54.414307 54.414307 54.414307 30.051433 0 54.41533-24.362874 54.41533-54.414307L662.202419 787.645944l37.287231 0c32.04074 0 58.014298-25.974581 58.014298-58.014298L757.503948 328.963267l-491.166509 0L266.337439 729.631646z" fill="#282828" p-id="31005"></path><path d="M181.227016 342.574263c-30.052456 0-54.414307 24.361851-54.414307 54.414307l0 231.915977c0 30.051433 24.361851 54.414307 54.414307 54.414307s54.414307-24.362874 54.414307-54.414307L235.641323 396.98857C235.641323 366.936113 211.279473 342.574263 181.227016 342.574263z" fill="#282828" p-id="31006"></path><path d="M840.199369 341.248058c-30.051433 0-54.414307 24.361851-54.414307 54.414307l0 231.915977c0 30.051433 24.362874 54.413284 54.414307 54.413284s54.41533-24.361851 54.41533-54.413284L894.614699 395.662365C894.614699 365.609908 870.251825 341.248058 840.199369 341.248058z" fill="#282828" p-id="31007"></path><path d="M625.128035 151.092183l50.282197-76.364225-15.712867-10.347672-52.151777 79.20083c-29.294187-11.257391-61.111846-17.427928-94.372368-17.427928-34.830273 0-68.076468 6.770194-98.502431 19.060101l-53.226249-80.833003-15.71389 10.347672 51.53677 78.267575c-59.275012 29.127388-105.997126 79.891562-129.860626 141.996015L758.938624 294.991548C734.54812 231.512794 686.27672 179.879833 625.128035 151.092183zM402.9437 254.06237c-15.258519 0-27.628244-12.369725-27.628244-27.628244s12.369725-27.628244 27.628244-27.628244 27.628244 12.369725 27.628244 27.628244S418.201196 254.06237 402.9437 254.06237zM619.886661 254.06237c-15.258519 0-27.628244-12.369725-27.628244-27.628244s12.369725-27.628244 27.628244-27.628244 27.628244 12.369725 27.628244 27.628244S635.14518 254.06237 619.886661 254.06237z" fill="#282828" p-id="31008"></path></svg>