<?xml version="1.0" encoding="utf-8"?>
<svg width="636" height="636" viewBox="0 0 636 636" xmlns="http://www.w3.org/2000/svg" xmlns:xlink="http://www.w3.org/1999/xlink" xmlns:ev="http://www.w3.org/2001/xml-events">
<desc></desc>
<rect width="636" height="636" fill="#ffffff" cx="0" cy="0" />
<defs>
<rect id="p" width="12" height="12" />
</defs>
<g fill="#000000">
<use x="24" y="24" xlink:href="#p" />
<use x="36" y="24" xlink:href="#p" />
<use x="48" y="24" xlink:href="#p" />
<use x="60" y="24" xlink:href="#p" />
<use x="72" y="24" xlink:href="#p" />
<use x="84" y="24" xlink:href="#p" />
<use x="96" y="24" xlink:href="#p" />
<use x="120" y="24" xlink:href="#p" />
<use x="144" y="24" xlink:href="#p" />
<use x="180" y="24" xlink:href="#p" />
<use x="192" y="24" xlink:href="#p" />
<use x="252" y="24" xlink:href="#p" />
<use x="276" y="24" xlink:href="#p" />
<use x="288" y="24" xlink:href="#p" />
<use x="372" y="24" xlink:href="#p" />
<use x="384" y="24" xlink:href="#p" />
<use x="396" y="24" xlink:href="#p" />
<use x="408" y="24" xlink:href="#p" />
<use x="420" y="24" xlink:href="#p" />
<use x="432" y="24" xlink:href="#p" />
<use x="444" y="24" xlink:href="#p" />
<use x="468" y="24" xlink:href="#p" />
<use x="504" y="24" xlink:href="#p" />
<use x="528" y="24" xlink:href="#p" />
<use x="540" y="24" xlink:href="#p" />
<use x="552" y="24" xlink:href="#p" />
<use x="564" y="24" xlink:href="#p" />
<use x="576" y="24" xlink:href="#p" />
<use x="588" y="24" xlink:href="#p" />
<use x="600" y="24" xlink:href="#p" />
<use x="24" y="36" xlink:href="#p" />
<use x="96" y="36" xlink:href="#p" />
<use x="132" y="36" xlink:href="#p" />
<use x="168" y="36" xlink:href="#p" />
<use x="180" y="36" xlink:href="#p" />
<use x="228" y="36" xlink:href="#p" />
<use x="240" y="36" xlink:href="#p" />
<use x="252" y="36" xlink:href="#p" />
<use x="264" y="36" xlink:href="#p" />
<use x="324" y="36" xlink:href="#p" />
<use x="336" y="36" xlink:href="#p" />
<use x="372" y="36" xlink:href="#p" />
<use x="384" y="36" xlink:href="#p" />
<use x="396" y="36" xlink:href="#p" />
<use x="456" y="36" xlink:href="#p" />
<use x="468" y="36" xlink:href="#p" />
<use x="480" y="36" xlink:href="#p" />
<use x="492" y="36" xlink:href="#p" />
<use x="504" y="36" xlink:href="#p" />
<use x="528" y="36" xlink:href="#p" />
<use x="600" y="36" xlink:href="#p" />
<use x="24" y="48" xlink:href="#p" />
<use x="48" y="48" xlink:href="#p" />
<use x="60" y="48" xlink:href="#p" />
<use x="72" y="48" xlink:href="#p" />
<use x="96" y="48" xlink:href="#p" />
<use x="132" y="48" xlink:href="#p" />
<use x="156" y="48" xlink:href="#p" />
<use x="204" y="48" xlink:href="#p" />
<use x="216" y="48" xlink:href="#p" />
<use x="252" y="48" xlink:href="#p" />
<use x="276" y="48" xlink:href="#p" />
<use x="300" y="48" xlink:href="#p" />
<use x="348" y="48" xlink:href="#p" />
<use x="360" y="48" xlink:href="#p" />
<use x="372" y="48" xlink:href="#p" />
<use x="384" y="48" xlink:href="#p" />
<use x="408" y="48" xlink:href="#p" />
<use x="420" y="48" xlink:href="#p" />
<use x="432" y="48" xlink:href="#p" />
<use x="492" y="48" xlink:href="#p" />
<use x="504" y="48" xlink:href="#p" />
<use x="528" y="48" xlink:href="#p" />
<use x="552" y="48" xlink:href="#p" />
<use x="564" y="48" xlink:href="#p" />
<use x="576" y="48" xlink:href="#p" />
<use x="600" y="48" xlink:href="#p" />
<use x="24" y="60" xlink:href="#p" />
<use x="48" y="60" xlink:href="#p" />
<use x="60" y="60" xlink:href="#p" />
<use x="72" y="60" xlink:href="#p" />
<use x="96" y="60" xlink:href="#p" />
<use x="120" y="60" xlink:href="#p" />
<use x="132" y="60" xlink:href="#p" />
<use x="168" y="60" xlink:href="#p" />
<use x="192" y="60" xlink:href="#p" />
<use x="204" y="60" xlink:href="#p" />
<use x="216" y="60" xlink:href="#p" />
<use x="288" y="60" xlink:href="#p" />
<use x="312" y="60" xlink:href="#p" />
<use x="324" y="60" xlink:href="#p" />
<use x="360" y="60" xlink:href="#p" />
<use x="420" y="60" xlink:href="#p" />
<use x="444" y="60" xlink:href="#p" />
<use x="492" y="60" xlink:href="#p" />
<use x="528" y="60" xlink:href="#p" />
<use x="552" y="60" xlink:href="#p" />
<use x="564" y="60" xlink:href="#p" />
<use x="576" y="60" xlink:href="#p" />
<use x="600" y="60" xlink:href="#p" />
<use x="24" y="72" xlink:href="#p" />
<use x="48" y="72" xlink:href="#p" />
<use x="60" y="72" xlink:href="#p" />
<use x="72" y="72" xlink:href="#p" />
<use x="96" y="72" xlink:href="#p" />
<use x="168" y="72" xlink:href="#p" />
<use x="192" y="72" xlink:href="#p" />
<use x="204" y="72" xlink:href="#p" />
<use x="228" y="72" xlink:href="#p" />
<use x="240" y="72" xlink:href="#p" />
<use x="252" y="72" xlink:href="#p" />
<use x="264" y="72" xlink:href="#p" />
<use x="276" y="72" xlink:href="#p" />
<use x="288" y="72" xlink:href="#p" />
<use x="300" y="72" xlink:href="#p" />
<use x="312" y="72" xlink:href="#p" />
<use x="324" y="72" xlink:href="#p" />
<use x="336" y="72" xlink:href="#p" />
<use x="360" y="72" xlink:href="#p" />
<use x="372" y="72" xlink:href="#p" />
<use x="408" y="72" xlink:href="#p" />
<use x="420" y="72" xlink:href="#p" />
<use x="432" y="72" xlink:href="#p" />
<use x="456" y="72" xlink:href="#p" />
<use x="468" y="72" xlink:href="#p" />
<use x="528" y="72" xlink:href="#p" />
<use x="552" y="72" xlink:href="#p" />
<use x="564" y="72" xlink:href="#p" />
<use x="576" y="72" xlink:href="#p" />
<use x="600" y="72" xlink:href="#p" />
<use x="24" y="84" xlink:href="#p" />
<use x="96" y="84" xlink:href="#p" />
<use x="132" y="84" xlink:href="#p" />
<use x="264" y="84" xlink:href="#p" />
<use x="288" y="84" xlink:href="#p" />
<use x="336" y="84" xlink:href="#p" />
<use x="360" y="84" xlink:href="#p" />
<use x="432" y="84" xlink:href="#p" />
<use x="444" y="84" xlink:href="#p" />
<use x="456" y="84" xlink:href="#p" />
<use x="468" y="84" xlink:href="#p" />
<use x="480" y="84" xlink:href="#p" />
<use x="528" y="84" xlink:href="#p" />
<use x="600" y="84" xlink:href="#p" />
<use x="24" y="96" xlink:href="#p" />
<use x="36" y="96" xlink:href="#p" />
<use x="48" y="96" xlink:href="#p" />
<use x="60" y="96" xlink:href="#p" />
<use x="72" y="96" xlink:href="#p" />
<use x="84" y="96" xlink:href="#p" />
<use x="96" y="96" xlink:href="#p" />
<use x="120" y="96" xlink:href="#p" />
<use x="144" y="96" xlink:href="#p" />
<use x="168" y="96" xlink:href="#p" />
<use x="192" y="96" xlink:href="#p" />
<use x="216" y="96" xlink:href="#p" />
<use x="240" y="96" xlink:href="#p" />
<use x="264" y="96" xlink:href="#p" />
<use x="288" y="96" xlink:href="#p" />
<use x="312" y="96" xlink:href="#p" />
<use x="336" y="96" xlink:href="#p" />
<use x="360" y="96" xlink:href="#p" />
<use x="384" y="96" xlink:href="#p" />
<use x="408" y="96" xlink:href="#p" />
<use x="432" y="96" xlink:href="#p" />
<use x="456" y="96" xlink:href="#p" />
<use x="480" y="96" xlink:href="#p" />
<use x="504" y="96" xlink:href="#p" />
<use x="528" y="96" xlink:href="#p" />
<use x="540" y="96" xlink:href="#p" />
<use x="552" y="96" xlink:href="#p" />
<use x="564" y="96" xlink:href="#p" />
<use x="576" y="96" xlink:href="#p" />
<use x="588" y="96" xlink:href="#p" />
<use x="600" y="96" xlink:href="#p" />
<use x="144" y="108" xlink:href="#p" />
<use x="168" y="108" xlink:href="#p" />
<use x="180" y="108" xlink:href="#p" />
<use x="192" y="108" xlink:href="#p" />
<use x="204" y="108" xlink:href="#p" />
<use x="228" y="108" xlink:href="#p" />
<use x="252" y="108" xlink:href="#p" />
<use x="276" y="108" xlink:href="#p" />
<use x="288" y="108" xlink:href="#p" />
<use x="336" y="108" xlink:href="#p" />
<use x="360" y="108" xlink:href="#p" />
<use x="384" y="108" xlink:href="#p" />
<use x="408" y="108" xlink:href="#p" />
<use x="444" y="108" xlink:href="#p" />
<use x="456" y="108" xlink:href="#p" />
<use x="504" y="108" xlink:href="#p" />
<use x="48" y="120" xlink:href="#p" />
<use x="72" y="120" xlink:href="#p" />
<use x="84" y="120" xlink:href="#p" />
<use x="96" y="120" xlink:href="#p" />
<use x="120" y="120" xlink:href="#p" />
<use x="192" y="120" xlink:href="#p" />
<use x="240" y="120" xlink:href="#p" />
<use x="252" y="120" xlink:href="#p" />
<use x="276" y="120" xlink:href="#p" />
<use x="288" y="120" xlink:href="#p" />
<use x="300" y="120" xlink:href="#p" />
<use x="312" y="120" xlink:href="#p" />
<use x="324" y="120" xlink:href="#p" />
<use x="336" y="120" xlink:href="#p" />
<use x="384" y="120" xlink:href="#p" />
<use x="420" y="120" xlink:href="#p" />
<use x="432" y="120" xlink:href="#p" />
<use x="444" y="120" xlink:href="#p" />
<use x="456" y="120" xlink:href="#p" />
<use x="492" y="120" xlink:href="#p" />
<use x="504" y="120" xlink:href="#p" />
<use x="516" y="120" xlink:href="#p" />
<use x="564" y="120" xlink:href="#p" />
<use x="600" y="120" xlink:href="#p" />
<use x="48" y="132" xlink:href="#p" />
<use x="72" y="132" xlink:href="#p" />
<use x="84" y="132" xlink:href="#p" />
<use x="108" y="132" xlink:href="#p" />
<use x="156" y="132" xlink:href="#p" />
<use x="216" y="132" xlink:href="#p" />
<use x="228" y="132" xlink:href="#p" />
<use x="240" y="132" xlink:href="#p" />
<use x="264" y="132" xlink:href="#p" />
<use x="300" y="132" xlink:href="#p" />
<use x="348" y="132" xlink:href="#p" />
<use x="360" y="132" xlink:href="#p" />
<use x="372" y="132" xlink:href="#p" />
<use x="408" y="132" xlink:href="#p" />
<use x="444" y="132" xlink:href="#p" />
<use x="456" y="132" xlink:href="#p" />
<use x="552" y="132" xlink:href="#p" />
<use x="588" y="132" xlink:href="#p" />
<use x="600" y="132" xlink:href="#p" />
<use x="48" y="144" xlink:href="#p" />
<use x="60" y="144" xlink:href="#p" />
<use x="72" y="144" xlink:href="#p" />
<use x="96" y="144" xlink:href="#p" />
<use x="108" y="144" xlink:href="#p" />
<use x="120" y="144" xlink:href="#p" />
<use x="132" y="144" xlink:href="#p" />
<use x="168" y="144" xlink:href="#p" />
<use x="180" y="144" xlink:href="#p" />
<use x="204" y="144" xlink:href="#p" />
<use x="240" y="144" xlink:href="#p" />
<use x="252" y="144" xlink:href="#p" />
<use x="288" y="144" xlink:href="#p" />
<use x="312" y="144" xlink:href="#p" />
<use x="324" y="144" xlink:href="#p" />
<use x="372" y="144" xlink:href="#p" />
<use x="384" y="144" xlink:href="#p" />
<use x="444" y="144" xlink:href="#p" />
<use x="468" y="144" xlink:href="#p" />
<use x="504" y="144" xlink:href="#p" />
<use x="516" y="144" xlink:href="#p" />
<use x="540" y="144" xlink:href="#p" />
<use x="564" y="144" xlink:href="#p" />
<use x="576" y="144" xlink:href="#p" />
<use x="588" y="144" xlink:href="#p" />
<use x="600" y="144" xlink:href="#p" />
<use x="48" y="156" xlink:href="#p" />
<use x="84" y="156" xlink:href="#p" />
<use x="120" y="156" xlink:href="#p" />
<use x="132" y="156" xlink:href="#p" />
<use x="144" y="156" xlink:href="#p" />
<use x="156" y="156" xlink:href="#p" />
<use x="168" y="156" xlink:href="#p" />
<use x="180" y="156" xlink:href="#p" />
<use x="216" y="156" xlink:href="#p" />
<use x="252" y="156" xlink:href="#p" />
<use x="264" y="156" xlink:href="#p" />
<use x="288" y="156" xlink:href="#p" />
<use x="300" y="156" xlink:href="#p" />
<use x="312" y="156" xlink:href="#p" />
<use x="324" y="156" xlink:href="#p" />
<use x="336" y="156" xlink:href="#p" />
<use x="348" y="156" xlink:href="#p" />
<use x="360" y="156" xlink:href="#p" />
<use x="396" y="156" xlink:href="#p" />
<use x="408" y="156" xlink:href="#p" />
<use x="444" y="156" xlink:href="#p" />
<use x="456" y="156" xlink:href="#p" />
<use x="540" y="156" xlink:href="#p" />
<use x="552" y="156" xlink:href="#p" />
<use x="24" y="168" xlink:href="#p" />
<use x="96" y="168" xlink:href="#p" />
<use x="108" y="168" xlink:href="#p" />
<use x="132" y="168" xlink:href="#p" />
<use x="156" y="168" xlink:href="#p" />
<use x="168" y="168" xlink:href="#p" />
<use x="180" y="168" xlink:href="#p" />
<use x="192" y="168" xlink:href="#p" />
<use x="204" y="168" xlink:href="#p" />
<use x="228" y="168" xlink:href="#p" />
<use x="252" y="168" xlink:href="#p" />
<use x="288" y="168" xlink:href="#p" />
<use x="312" y="168" xlink:href="#p" />
<use x="360" y="168" xlink:href="#p" />
<use x="444" y="168" xlink:href="#p" />
<use x="456" y="168" xlink:href="#p" />
<use x="480" y="168" xlink:href="#p" />
<use x="516" y="168" xlink:href="#p" />
<use x="528" y="168" xlink:href="#p" />
<use x="540" y="168" xlink:href="#p" />
<use x="552" y="168" xlink:href="#p" />
<use x="564" y="168" xlink:href="#p" />
<use x="576" y="168" xlink:href="#p" />
<use x="24" y="180" xlink:href="#p" />
<use x="36" y="180" xlink:href="#p" />
<use x="48" y="180" xlink:href="#p" />
<use x="60" y="180" xlink:href="#p" />
<use x="108" y="180" xlink:href="#p" />
<use x="204" y="180" xlink:href="#p" />
<use x="252" y="180" xlink:href="#p" />
<use x="288" y="180" xlink:href="#p" />
<use x="336" y="180" xlink:href="#p" />
<use x="348" y="180" xlink:href="#p" />
<use x="360" y="180" xlink:href="#p" />
<use x="372" y="180" xlink:href="#p" />
<use x="384" y="180" xlink:href="#p" />
<use x="396" y="180" xlink:href="#p" />
<use x="456" y="180" xlink:href="#p" />
<use x="492" y="180" xlink:href="#p" />
<use x="540" y="180" xlink:href="#p" />
<use x="576" y="180" xlink:href="#p" />
<use x="600" y="180" xlink:href="#p" />
<use x="24" y="192" xlink:href="#p" />
<use x="60" y="192" xlink:href="#p" />
<use x="72" y="192" xlink:href="#p" />
<use x="96" y="192" xlink:href="#p" />
<use x="108" y="192" xlink:href="#p" />
<use x="120" y="192" xlink:href="#p" />
<use x="132" y="192" xlink:href="#p" />
<use x="144" y="192" xlink:href="#p" />
<use x="180" y="192" xlink:href="#p" />
<use x="228" y="192" xlink:href="#p" />
<use x="240" y="192" xlink:href="#p" />
<use x="252" y="192" xlink:href="#p" />
<use x="264" y="192" xlink:href="#p" />
<use x="300" y="192" xlink:href="#p" />
<use x="348" y="192" xlink:href="#p" />
<use x="360" y="192" xlink:href="#p" />
<use x="408" y="192" xlink:href="#p" />
<use x="444" y="192" xlink:href="#p" />
<use x="516" y="192" xlink:href="#p" />
<use x="540" y="192" xlink:href="#p" />
<use x="552" y="192" xlink:href="#p" />
<use x="588" y="192" xlink:href="#p" />
<use x="600" y="192" xlink:href="#p" />
<use x="36" y="204" xlink:href="#p" />
<use x="48" y="204" xlink:href="#p" />
<use x="108" y="204" xlink:href="#p" />
<use x="132" y="204" xlink:href="#p" />
<use x="144" y="204" xlink:href="#p" />
<use x="156" y="204" xlink:href="#p" />
<use x="192" y="204" xlink:href="#p" />
<use x="204" y="204" xlink:href="#p" />
<use x="216" y="204" xlink:href="#p" />
<use x="240" y="204" xlink:href="#p" />
<use x="252" y="204" xlink:href="#p" />
<use x="312" y="204" xlink:href="#p" />
<use x="324" y="204" xlink:href="#p" />
<use x="348" y="204" xlink:href="#p" />
<use x="372" y="204" xlink:href="#p" />
<use x="396" y="204" xlink:href="#p" />
<use x="408" y="204" xlink:href="#p" />
<use x="420" y="204" xlink:href="#p" />
<use x="444" y="204" xlink:href="#p" />
<use x="456" y="204" xlink:href="#p" />
<use x="492" y="204" xlink:href="#p" />
<use x="504" y="204" xlink:href="#p" />
<use x="516" y="204" xlink:href="#p" />
<use x="528" y="204" xlink:href="#p" />
<use x="540" y="204" xlink:href="#p" />
<use x="552" y="204" xlink:href="#p" />
<use x="36" y="216" xlink:href="#p" />
<use x="60" y="216" xlink:href="#p" />
<use x="72" y="216" xlink:href="#p" />
<use x="96" y="216" xlink:href="#p" />
<use x="132" y="216" xlink:href="#p" />
<use x="144" y="216" xlink:href="#p" />
<use x="168" y="216" xlink:href="#p" />
<use x="192" y="216" xlink:href="#p" />
<use x="228" y="216" xlink:href="#p" />
<use x="240" y="216" xlink:href="#p" />
<use x="252" y="216" xlink:href="#p" />
<use x="276" y="216" xlink:href="#p" />
<use x="300" y="216" xlink:href="#p" />
<use x="324" y="216" xlink:href="#p" />
<use x="360" y="216" xlink:href="#p" />
<use x="372" y="216" xlink:href="#p" />
<use x="420" y="216" xlink:href="#p" />
<use x="432" y="216" xlink:href="#p" />
<use x="444" y="216" xlink:href="#p" />
<use x="456" y="216" xlink:href="#p" />
<use x="480" y="216" xlink:href="#p" />
<use x="492" y="216" xlink:href="#p" />
<use x="516" y="216" xlink:href="#p" />
<use x="528" y="216" xlink:href="#p" />
<use x="552" y="216" xlink:href="#p" />
<use x="588" y="216" xlink:href="#p" />
<use x="600" y="216" xlink:href="#p" />
<use x="72" y="228" xlink:href="#p" />
<use x="84" y="228" xlink:href="#p" />
<use x="144" y="228" xlink:href="#p" />
<use x="156" y="228" xlink:href="#p" />
<use x="192" y="228" xlink:href="#p" />
<use x="240" y="228" xlink:href="#p" />
<use x="252" y="228" xlink:href="#p" />
<use x="288" y="228" xlink:href="#p" />
<use x="312" y="228" xlink:href="#p" />
<use x="324" y="228" xlink:href="#p" />
<use x="336" y="228" xlink:href="#p" />
<use x="348" y="228" xlink:href="#p" />
<use x="372" y="228" xlink:href="#p" />
<use x="396" y="228" xlink:href="#p" />
<use x="408" y="228" xlink:href="#p" />
<use x="444" y="228" xlink:href="#p" />
<use x="456" y="228" xlink:href="#p" />
<use x="468" y="228" xlink:href="#p" />
<use x="492" y="228" xlink:href="#p" />
<use x="552" y="228" xlink:href="#p" />
<use x="564" y="228" xlink:href="#p" />
<use x="576" y="228" xlink:href="#p" />
<use x="588" y="228" xlink:href="#p" />
<use x="600" y="228" xlink:href="#p" />
<use x="24" y="240" xlink:href="#p" />
<use x="36" y="240" xlink:href="#p" />
<use x="60" y="240" xlink:href="#p" />
<use x="84" y="240" xlink:href="#p" />
<use x="96" y="240" xlink:href="#p" />
<use x="108" y="240" xlink:href="#p" />
<use x="120" y="240" xlink:href="#p" />
<use x="132" y="240" xlink:href="#p" />
<use x="144" y="240" xlink:href="#p" />
<use x="168" y="240" xlink:href="#p" />
<use x="216" y="240" xlink:href="#p" />
<use x="228" y="240" xlink:href="#p" />
<use x="240" y="240" xlink:href="#p" />
<use x="288" y="240" xlink:href="#p" />
<use x="300" y="240" xlink:href="#p" />
<use x="312" y="240" xlink:href="#p" />
<use x="324" y="240" xlink:href="#p" />
<use x="360" y="240" xlink:href="#p" />
<use x="372" y="240" xlink:href="#p" />
<use x="384" y="240" xlink:href="#p" />
<use x="396" y="240" xlink:href="#p" />
<use x="408" y="240" xlink:href="#p" />
<use x="420" y="240" xlink:href="#p" />
<use x="456" y="240" xlink:href="#p" />
<use x="504" y="240" xlink:href="#p" />
<use x="552" y="240" xlink:href="#p" />
<use x="576" y="240" xlink:href="#p" />
<use x="600" y="240" xlink:href="#p" />
<use x="24" y="252" xlink:href="#p" />
<use x="108" y="252" xlink:href="#p" />
<use x="120" y="252" xlink:href="#p" />
<use x="156" y="252" xlink:href="#p" />
<use x="168" y="252" xlink:href="#p" />
<use x="180" y="252" xlink:href="#p" />
<use x="288" y="252" xlink:href="#p" />
<use x="300" y="252" xlink:href="#p" />
<use x="336" y="252" xlink:href="#p" />
<use x="360" y="252" xlink:href="#p" />
<use x="372" y="252" xlink:href="#p" />
<use x="384" y="252" xlink:href="#p" />
<use x="396" y="252" xlink:href="#p" />
<use x="408" y="252" xlink:href="#p" />
<use x="432" y="252" xlink:href="#p" />
<use x="444" y="252" xlink:href="#p" />
<use x="456" y="252" xlink:href="#p" />
<use x="480" y="252" xlink:href="#p" />
<use x="516" y="252" xlink:href="#p" />
<use x="552" y="252" xlink:href="#p" />
<use x="600" y="252" xlink:href="#p" />
<use x="24" y="264" xlink:href="#p" />
<use x="36" y="264" xlink:href="#p" />
<use x="60" y="264" xlink:href="#p" />
<use x="72" y="264" xlink:href="#p" />
<use x="84" y="264" xlink:href="#p" />
<use x="96" y="264" xlink:href="#p" />
<use x="108" y="264" xlink:href="#p" />
<use x="120" y="264" xlink:href="#p" />
<use x="132" y="264" xlink:href="#p" />
<use x="144" y="264" xlink:href="#p" />
<use x="180" y="264" xlink:href="#p" />
<use x="192" y="264" xlink:href="#p" />
<use x="216" y="264" xlink:href="#p" />
<use x="252" y="264" xlink:href="#p" />
<use x="264" y="264" xlink:href="#p" />
<use x="300" y="264" xlink:href="#p" />
<use x="336" y="264" xlink:href="#p" />
<use x="384" y="264" xlink:href="#p" />
<use x="396" y="264" xlink:href="#p" />
<use x="408" y="264" xlink:href="#p" />
<use x="444" y="264" xlink:href="#p" />
<use x="456" y="264" xlink:href="#p" />
<use x="468" y="264" xlink:href="#p" />
<use x="492" y="264" xlink:href="#p" />
<use x="528" y="264" xlink:href="#p" />
<use x="540" y="264" xlink:href="#p" />
<use x="552" y="264" xlink:href="#p" />
<use x="564" y="264" xlink:href="#p" />
<use x="600" y="264" xlink:href="#p" />
<use x="36" y="276" xlink:href="#p" />
<use x="60" y="276" xlink:href="#p" />
<use x="72" y="276" xlink:href="#p" />
<use x="120" y="276" xlink:href="#p" />
<use x="144" y="276" xlink:href="#p" />
<use x="168" y="276" xlink:href="#p" />
<use x="204" y="276" xlink:href="#p" />
<use x="216" y="276" xlink:href="#p" />
<use x="240" y="276" xlink:href="#p" />
<use x="264" y="276" xlink:href="#p" />
<use x="288" y="276" xlink:href="#p" />
<use x="300" y="276" xlink:href="#p" />
<use x="336" y="276" xlink:href="#p" />
<use x="348" y="276" xlink:href="#p" />
<use x="360" y="276" xlink:href="#p" />
<use x="372" y="276" xlink:href="#p" />
<use x="396" y="276" xlink:href="#p" />
<use x="468" y="276" xlink:href="#p" />
<use x="540" y="276" xlink:href="#p" />
<use x="576" y="276" xlink:href="#p" />
<use x="588" y="276" xlink:href="#p" />
<use x="600" y="276" xlink:href="#p" />
<use x="48" y="288" xlink:href="#p" />
<use x="60" y="288" xlink:href="#p" />
<use x="72" y="288" xlink:href="#p" />
<use x="84" y="288" xlink:href="#p" />
<use x="96" y="288" xlink:href="#p" />
<use x="108" y="288" xlink:href="#p" />
<use x="120" y="288" xlink:href="#p" />
<use x="132" y="288" xlink:href="#p" />
<use x="144" y="288" xlink:href="#p" />
<use x="156" y="288" xlink:href="#p" />
<use x="168" y="288" xlink:href="#p" />
<use x="180" y="288" xlink:href="#p" />
<use x="192" y="288" xlink:href="#p" />
<use x="204" y="288" xlink:href="#p" />
<use x="216" y="288" xlink:href="#p" />
<use x="228" y="288" xlink:href="#p" />
<use x="240" y="288" xlink:href="#p" />
<use x="288" y="288" xlink:href="#p" />
<use x="300" y="288" xlink:href="#p" />
<use x="312" y="288" xlink:href="#p" />
<use x="324" y="288" xlink:href="#p" />
<use x="336" y="288" xlink:href="#p" />
<use x="360" y="288" xlink:href="#p" />
<use x="372" y="288" xlink:href="#p" />
<use x="396" y="288" xlink:href="#p" />
<use x="456" y="288" xlink:href="#p" />
<use x="492" y="288" xlink:href="#p" />
<use x="504" y="288" xlink:href="#p" />
<use x="516" y="288" xlink:href="#p" />
<use x="528" y="288" xlink:href="#p" />
<use x="540" y="288" xlink:href="#p" />
<use x="552" y="288" xlink:href="#p" />
<use x="588" y="288" xlink:href="#p" />
<use x="600" y="288" xlink:href="#p" />
<use x="36" y="300" xlink:href="#p" />
<use x="48" y="300" xlink:href="#p" />
<use x="72" y="300" xlink:href="#p" />
<use x="120" y="300" xlink:href="#p" />
<use x="132" y="300" xlink:href="#p" />
<use x="144" y="300" xlink:href="#p" />
<use x="180" y="300" xlink:href="#p" />
<use x="192" y="300" xlink:href="#p" />
<use x="204" y="300" xlink:href="#p" />
<use x="216" y="300" xlink:href="#p" />
<use x="240" y="300" xlink:href="#p" />
<use x="264" y="300" xlink:href="#p" />
<use x="288" y="300" xlink:href="#p" />
<use x="336" y="300" xlink:href="#p" />
<use x="360" y="300" xlink:href="#p" />
<use x="396" y="300" xlink:href="#p" />
<use x="420" y="300" xlink:href="#p" />
<use x="444" y="300" xlink:href="#p" />
<use x="456" y="300" xlink:href="#p" />
<use x="504" y="300" xlink:href="#p" />
<use x="552" y="300" xlink:href="#p" />
<use x="600" y="300" xlink:href="#p" />
<use x="36" y="312" xlink:href="#p" />
<use x="48" y="312" xlink:href="#p" />
<use x="72" y="312" xlink:href="#p" />
<use x="96" y="312" xlink:href="#p" />
<use x="120" y="312" xlink:href="#p" />
<use x="192" y="312" xlink:href="#p" />
<use x="216" y="312" xlink:href="#p" />
<use x="228" y="312" xlink:href="#p" />
<use x="240" y="312" xlink:href="#p" />
<use x="288" y="312" xlink:href="#p" />
<use x="312" y="312" xlink:href="#p" />
<use x="336" y="312" xlink:href="#p" />
<use x="348" y="312" xlink:href="#p" />
<use x="360" y="312" xlink:href="#p" />
<use x="372" y="312" xlink:href="#p" />
<use x="396" y="312" xlink:href="#p" />
<use x="432" y="312" xlink:href="#p" />
<use x="456" y="312" xlink:href="#p" />
<use x="468" y="312" xlink:href="#p" />
<use x="504" y="312" xlink:href="#p" />
<use x="528" y="312" xlink:href="#p" />
<use x="552" y="312" xlink:href="#p" />
<use x="600" y="312" xlink:href="#p" />
<use x="24" y="324" xlink:href="#p" />
<use x="36" y="324" xlink:href="#p" />
<use x="60" y="324" xlink:href="#p" />
<use x="72" y="324" xlink:href="#p" />
<use x="120" y="324" xlink:href="#p" />
<use x="144" y="324" xlink:href="#p" />
<use x="168" y="324" xlink:href="#p" />
<use x="192" y="324" xlink:href="#p" />
<use x="276" y="324" xlink:href="#p" />
<use x="288" y="324" xlink:href="#p" />
<use x="336" y="324" xlink:href="#p" />
<use x="348" y="324" xlink:href="#p" />
<use x="384" y="324" xlink:href="#p" />
<use x="396" y="324" xlink:href="#p" />
<use x="408" y="324" xlink:href="#p" />
<use x="444" y="324" xlink:href="#p" />
<use x="456" y="324" xlink:href="#p" />
<use x="504" y="324" xlink:href="#p" />
<use x="552" y="324" xlink:href="#p" />
<use x="564" y="324" xlink:href="#p" />
<use x="588" y="324" xlink:href="#p" />
<use x="600" y="324" xlink:href="#p" />
<use x="24" y="336" xlink:href="#p" />
<use x="36" y="336" xlink:href="#p" />
<use x="48" y="336" xlink:href="#p" />
<use x="72" y="336" xlink:href="#p" />
<use x="84" y="336" xlink:href="#p" />
<use x="96" y="336" xlink:href="#p" />
<use x="108" y="336" xlink:href="#p" />
<use x="120" y="336" xlink:href="#p" />
<use x="132" y="336" xlink:href="#p" />
<use x="156" y="336" xlink:href="#p" />
<use x="180" y="336" xlink:href="#p" />
<use x="240" y="336" xlink:href="#p" />
<use x="276" y="336" xlink:href="#p" />
<use x="288" y="336" xlink:href="#p" />
<use x="300" y="336" xlink:href="#p" />
<use x="312" y="336" xlink:href="#p" />
<use x="324" y="336" xlink:href="#p" />
<use x="336" y="336" xlink:href="#p" />
<use x="384" y="336" xlink:href="#p" />
<use x="396" y="336" xlink:href="#p" />
<use x="456" y="336" xlink:href="#p" />
<use x="504" y="336" xlink:href="#p" />
<use x="516" y="336" xlink:href="#p" />
<use x="528" y="336" xlink:href="#p" />
<use x="540" y="336" xlink:href="#p" />
<use x="552" y="336" xlink:href="#p" />
<use x="564" y="336" xlink:href="#p" />
<use x="588" y="336" xlink:href="#p" />
<use x="600" y="336" xlink:href="#p" />
<use x="48" y="348" xlink:href="#p" />
<use x="84" y="348" xlink:href="#p" />
<use x="132" y="348" xlink:href="#p" />
<use x="192" y="348" xlink:href="#p" />
<use x="252" y="348" xlink:href="#p" />
<use x="264" y="348" xlink:href="#p" />
<use x="276" y="348" xlink:href="#p" />
<use x="348" y="348" xlink:href="#p" />
<use x="360" y="348" xlink:href="#p" />
<use x="384" y="348" xlink:href="#p" />
<use x="396" y="348" xlink:href="#p" />
<use x="420" y="348" xlink:href="#p" />
<use x="456" y="348" xlink:href="#p" />
<use x="480" y="348" xlink:href="#p" />
<use x="504" y="348" xlink:href="#p" />
<use x="528" y="348" xlink:href="#p" />
<use x="564" y="348" xlink:href="#p" />
<use x="48" y="360" xlink:href="#p" />
<use x="72" y="360" xlink:href="#p" />
<use x="96" y="360" xlink:href="#p" />
<use x="120" y="360" xlink:href="#p" />
<use x="144" y="360" xlink:href="#p" />
<use x="156" y="360" xlink:href="#p" />
<use x="168" y="360" xlink:href="#p" />
<use x="180" y="360" xlink:href="#p" />
<use x="216" y="360" xlink:href="#p" />
<use x="228" y="360" xlink:href="#p" />
<use x="240" y="360" xlink:href="#p" />
<use x="264" y="360" xlink:href="#p" />
<use x="288" y="360" xlink:href="#p" />
<use x="312" y="360" xlink:href="#p" />
<use x="336" y="360" xlink:href="#p" />
<use x="360" y="360" xlink:href="#p" />
<use x="372" y="360" xlink:href="#p" />
<use x="396" y="360" xlink:href="#p" />
<use x="408" y="360" xlink:href="#p" />
<use x="420" y="360" xlink:href="#p" />
<use x="444" y="360" xlink:href="#p" />
<use x="456" y="360" xlink:href="#p" />
<use x="480" y="360" xlink:href="#p" />
<use x="516" y="360" xlink:href="#p" />
<use x="600" y="360" xlink:href="#p" />
<use x="36" y="372" xlink:href="#p" />
<use x="48" y="372" xlink:href="#p" />
<use x="72" y="372" xlink:href="#p" />
<use x="84" y="372" xlink:href="#p" />
<use x="156" y="372" xlink:href="#p" />
<use x="180" y="372" xlink:href="#p" />
<use x="216" y="372" xlink:href="#p" />
<use x="228" y="372" xlink:href="#p" />
<use x="264" y="372" xlink:href="#p" />
<use x="276" y="372" xlink:href="#p" />
<use x="288" y="372" xlink:href="#p" />
<use x="324" y="372" xlink:href="#p" />
<use x="336" y="372" xlink:href="#p" />
<use x="360" y="372" xlink:href="#p" />
<use x="372" y="372" xlink:href="#p" />
<use x="408" y="372" xlink:href="#p" />
<use x="420" y="372" xlink:href="#p" />
<use x="444" y="372" xlink:href="#p" />
<use x="504" y="372" xlink:href="#p" />
<use x="528" y="372" xlink:href="#p" />
<use x="564" y="372" xlink:href="#p" />
<use x="588" y="372" xlink:href="#p" />
<use x="600" y="372" xlink:href="#p" />
<use x="48" y="384" xlink:href="#p" />
<use x="60" y="384" xlink:href="#p" />
<use x="96" y="384" xlink:href="#p" />
<use x="108" y="384" xlink:href="#p" />
<use x="132" y="384" xlink:href="#p" />
<use x="144" y="384" xlink:href="#p" />
<use x="156" y="384" xlink:href="#p" />
<use x="168" y="384" xlink:href="#p" />
<use x="180" y="384" xlink:href="#p" />
<use x="216" y="384" xlink:href="#p" />
<use x="228" y="384" xlink:href="#p" />
<use x="300" y="384" xlink:href="#p" />
<use x="360" y="384" xlink:href="#p" />
<use x="372" y="384" xlink:href="#p" />
<use x="396" y="384" xlink:href="#p" />
<use x="444" y="384" xlink:href="#p" />
<use x="456" y="384" xlink:href="#p" />
<use x="492" y="384" xlink:href="#p" />
<use x="504" y="384" xlink:href="#p" />
<use x="516" y="384" xlink:href="#p" />
<use x="528" y="384" xlink:href="#p" />
<use x="564" y="384" xlink:href="#p" />
<use x="588" y="384" xlink:href="#p" />
<use x="600" y="384" xlink:href="#p" />
<use x="72" y="396" xlink:href="#p" />
<use x="84" y="396" xlink:href="#p" />
<use x="120" y="396" xlink:href="#p" />
<use x="156" y="396" xlink:href="#p" />
<use x="168" y="396" xlink:href="#p" />
<use x="180" y="396" xlink:href="#p" />
<use x="192" y="396" xlink:href="#p" />
<use x="204" y="396" xlink:href="#p" />
<use x="216" y="396" xlink:href="#p" />
<use x="264" y="396" xlink:href="#p" />
<use x="312" y="396" xlink:href="#p" />
<use x="324" y="396" xlink:href="#p" />
<use x="360" y="396" xlink:href="#p" />
<use x="372" y="396" xlink:href="#p" />
<use x="384" y="396" xlink:href="#p" />
<use x="396" y="396" xlink:href="#p" />
<use x="432" y="396" xlink:href="#p" />
<use x="444" y="396" xlink:href="#p" />
<use x="456" y="396" xlink:href="#p" />
<use x="504" y="396" xlink:href="#p" />
<use x="540" y="396" xlink:href="#p" />
<use x="588" y="396" xlink:href="#p" />
<use x="48" y="408" xlink:href="#p" />
<use x="72" y="408" xlink:href="#p" />
<use x="96" y="408" xlink:href="#p" />
<use x="120" y="408" xlink:href="#p" />
<use x="132" y="408" xlink:href="#p" />
<use x="168" y="408" xlink:href="#p" />
<use x="216" y="408" xlink:href="#p" />
<use x="264" y="408" xlink:href="#p" />
<use x="288" y="408" xlink:href="#p" />
<use x="300" y="408" xlink:href="#p" />
<use x="312" y="408" xlink:href="#p" />
<use x="324" y="408" xlink:href="#p" />
<use x="348" y="408" xlink:href="#p" />
<use x="372" y="408" xlink:href="#p" />
<use x="384" y="408" xlink:href="#p" />
<use x="408" y="408" xlink:href="#p" />
<use x="420" y="408" xlink:href="#p" />
<use x="432" y="408" xlink:href="#p" />
<use x="456" y="408" xlink:href="#p" />
<use x="480" y="408" xlink:href="#p" />
<use x="516" y="408" xlink:href="#p" />
<use x="564" y="408" xlink:href="#p" />
<use x="588" y="408" xlink:href="#p" />
<use x="600" y="408" xlink:href="#p" />
<use x="24" y="420" xlink:href="#p" />
<use x="48" y="420" xlink:href="#p" />
<use x="60" y="420" xlink:href="#p" />
<use x="84" y="420" xlink:href="#p" />
<use x="108" y="420" xlink:href="#p" />
<use x="132" y="420" xlink:href="#p" />
<use x="144" y="420" xlink:href="#p" />
<use x="156" y="420" xlink:href="#p" />
<use x="180" y="420" xlink:href="#p" />
<use x="240" y="420" xlink:href="#p" />
<use x="252" y="420" xlink:href="#p" />
<use x="276" y="420" xlink:href="#p" />
<use x="288" y="420" xlink:href="#p" />
<use x="324" y="420" xlink:href="#p" />
<use x="372" y="420" xlink:href="#p" />
<use x="408" y="420" xlink:href="#p" />
<use x="444" y="420" xlink:href="#p" />
<use x="504" y="420" xlink:href="#p" />
<use x="528" y="420" xlink:href="#p" />
<use x="576" y="420" xlink:href="#p" />
<use x="588" y="420" xlink:href="#p" />
<use x="600" y="420" xlink:href="#p" />
<use x="36" y="432" xlink:href="#p" />
<use x="48" y="432" xlink:href="#p" />
<use x="60" y="432" xlink:href="#p" />
<use x="72" y="432" xlink:href="#p" />
<use x="84" y="432" xlink:href="#p" />
<use x="96" y="432" xlink:href="#p" />
<use x="120" y="432" xlink:href="#p" />
<use x="132" y="432" xlink:href="#p" />
<use x="144" y="432" xlink:href="#p" />
<use x="156" y="432" xlink:href="#p" />
<use x="168" y="432" xlink:href="#p" />
<use x="180" y="432" xlink:href="#p" />
<use x="192" y="432" xlink:href="#p" />
<use x="264" y="432" xlink:href="#p" />
<use x="276" y="432" xlink:href="#p" />
<use x="288" y="432" xlink:href="#p" />
<use x="300" y="432" xlink:href="#p" />
<use x="312" y="432" xlink:href="#p" />
<use x="324" y="432" xlink:href="#p" />
<use x="360" y="432" xlink:href="#p" />
<use x="372" y="432" xlink:href="#p" />
<use x="456" y="432" xlink:href="#p" />
<use x="468" y="432" xlink:href="#p" />
<use x="480" y="432" xlink:href="#p" />
<use x="504" y="432" xlink:href="#p" />
<use x="516" y="432" xlink:href="#p" />
<use x="528" y="432" xlink:href="#p" />
<use x="552" y="432" xlink:href="#p" />
<use x="564" y="432" xlink:href="#p" />
<use x="588" y="432" xlink:href="#p" />
<use x="600" y="432" xlink:href="#p" />
<use x="48" y="444" xlink:href="#p" />
<use x="108" y="444" xlink:href="#p" />
<use x="132" y="444" xlink:href="#p" />
<use x="144" y="444" xlink:href="#p" />
<use x="168" y="444" xlink:href="#p" />
<use x="192" y="444" xlink:href="#p" />
<use x="240" y="444" xlink:href="#p" />
<use x="276" y="444" xlink:href="#p" />
<use x="300" y="444" xlink:href="#p" />
<use x="348" y="444" xlink:href="#p" />
<use x="432" y="444" xlink:href="#p" />
<use x="480" y="444" xlink:href="#p" />
<use x="492" y="444" xlink:href="#p" />
<use x="504" y="444" xlink:href="#p" />
<use x="528" y="444" xlink:href="#p" />
<use x="24" y="456" xlink:href="#p" />
<use x="48" y="456" xlink:href="#p" />
<use x="96" y="456" xlink:href="#p" />
<use x="192" y="456" xlink:href="#p" />
<use x="204" y="456" xlink:href="#p" />
<use x="228" y="456" xlink:href="#p" />
<use x="240" y="456" xlink:href="#p" />
<use x="252" y="456" xlink:href="#p" />
<use x="264" y="456" xlink:href="#p" />
<use x="300" y="456" xlink:href="#p" />
<use x="324" y="456" xlink:href="#p" />
<use x="360" y="456" xlink:href="#p" />
<use x="396" y="456" xlink:href="#p" />
<use x="408" y="456" xlink:href="#p" />
<use x="420" y="456" xlink:href="#p" />
<use x="444" y="456" xlink:href="#p" />
<use x="456" y="456" xlink:href="#p" />
<use x="468" y="456" xlink:href="#p" />
<use x="504" y="456" xlink:href="#p" />
<use x="528" y="456" xlink:href="#p" />
<use x="576" y="456" xlink:href="#p" />
<use x="588" y="456" xlink:href="#p" />
<use x="72" y="468" xlink:href="#p" />
<use x="108" y="468" xlink:href="#p" />
<use x="144" y="468" xlink:href="#p" />
<use x="168" y="468" xlink:href="#p" />
<use x="204" y="468" xlink:href="#p" />
<use x="216" y="468" xlink:href="#p" />
<use x="228" y="468" xlink:href="#p" />
<use x="264" y="468" xlink:href="#p" />
<use x="336" y="468" xlink:href="#p" />
<use x="372" y="468" xlink:href="#p" />
<use x="384" y="468" xlink:href="#p" />
<use x="396" y="468" xlink:href="#p" />
<use x="408" y="468" xlink:href="#p" />
<use x="444" y="468" xlink:href="#p" />
<use x="528" y="468" xlink:href="#p" />
<use x="588" y="468" xlink:href="#p" />
<use x="600" y="468" xlink:href="#p" />
<use x="36" y="480" xlink:href="#p" />
<use x="84" y="480" xlink:href="#p" />
<use x="96" y="480" xlink:href="#p" />
<use x="132" y="480" xlink:href="#p" />
<use x="144" y="480" xlink:href="#p" />
<use x="168" y="480" xlink:href="#p" />
<use x="180" y="480" xlink:href="#p" />
<use x="192" y="480" xlink:href="#p" />
<use x="240" y="480" xlink:href="#p" />
<use x="300" y="480" xlink:href="#p" />
<use x="312" y="480" xlink:href="#p" />
<use x="336" y="480" xlink:href="#p" />
<use x="360" y="480" xlink:href="#p" />
<use x="408" y="480" xlink:href="#p" />
<use x="420" y="480" xlink:href="#p" />
<use x="456" y="480" xlink:href="#p" />
<use x="468" y="480" xlink:href="#p" />
<use x="516" y="480" xlink:href="#p" />
<use x="528" y="480" xlink:href="#p" />
<use x="576" y="480" xlink:href="#p" />
<use x="588" y="480" xlink:href="#p" />
<use x="600" y="480" xlink:href="#p" />
<use x="36" y="492" xlink:href="#p" />
<use x="48" y="492" xlink:href="#p" />
<use x="60" y="492" xlink:href="#p" />
<use x="108" y="492" xlink:href="#p" />
<use x="144" y="492" xlink:href="#p" />
<use x="168" y="492" xlink:href="#p" />
<use x="180" y="492" xlink:href="#p" />
<use x="192" y="492" xlink:href="#p" />
<use x="216" y="492" xlink:href="#p" />
<use x="228" y="492" xlink:href="#p" />
<use x="240" y="492" xlink:href="#p" />
<use x="252" y="492" xlink:href="#p" />
<use x="276" y="492" xlink:href="#p" />
<use x="312" y="492" xlink:href="#p" />
<use x="348" y="492" xlink:href="#p" />
<use x="372" y="492" xlink:href="#p" />
<use x="384" y="492" xlink:href="#p" />
<use x="408" y="492" xlink:href="#p" />
<use x="420" y="492" xlink:href="#p" />
<use x="480" y="492" xlink:href="#p" />
<use x="516" y="492" xlink:href="#p" />
<use x="528" y="492" xlink:href="#p" />
<use x="540" y="492" xlink:href="#p" />
<use x="600" y="492" xlink:href="#p" />
<use x="24" y="504" xlink:href="#p" />
<use x="36" y="504" xlink:href="#p" />
<use x="48" y="504" xlink:href="#p" />
<use x="96" y="504" xlink:href="#p" />
<use x="120" y="504" xlink:href="#p" />
<use x="132" y="504" xlink:href="#p" />
<use x="144" y="504" xlink:href="#p" />
<use x="180" y="504" xlink:href="#p" />
<use x="192" y="504" xlink:href="#p" />
<use x="204" y="504" xlink:href="#p" />
<use x="216" y="504" xlink:href="#p" />
<use x="240" y="504" xlink:href="#p" />
<use x="252" y="504" xlink:href="#p" />
<use x="264" y="504" xlink:href="#p" />
<use x="276" y="504" xlink:href="#p" />
<use x="288" y="504" xlink:href="#p" />
<use x="300" y="504" xlink:href="#p" />
<use x="312" y="504" xlink:href="#p" />
<use x="324" y="504" xlink:href="#p" />
<use x="336" y="504" xlink:href="#p" />
<use x="360" y="504" xlink:href="#p" />
<use x="372" y="504" xlink:href="#p" />
<use x="396" y="504" xlink:href="#p" />
<use x="408" y="504" xlink:href="#p" />
<use x="432" y="504" xlink:href="#p" />
<use x="444" y="504" xlink:href="#p" />
<use x="456" y="504" xlink:href="#p" />
<use x="504" y="504" xlink:href="#p" />
<use x="516" y="504" xlink:href="#p" />
<use x="528" y="504" xlink:href="#p" />
<use x="540" y="504" xlink:href="#p" />
<use x="552" y="504" xlink:href="#p" />
<use x="564" y="504" xlink:href="#p" />
<use x="588" y="504" xlink:href="#p" />
<use x="600" y="504" xlink:href="#p" />
<use x="120" y="516" xlink:href="#p" />
<use x="132" y="516" xlink:href="#p" />
<use x="144" y="516" xlink:href="#p" />
<use x="156" y="516" xlink:href="#p" />
<use x="168" y="516" xlink:href="#p" />
<use x="192" y="516" xlink:href="#p" />
<use x="240" y="516" xlink:href="#p" />
<use x="252" y="516" xlink:href="#p" />
<use x="288" y="516" xlink:href="#p" />
<use x="336" y="516" xlink:href="#p" />
<use x="348" y="516" xlink:href="#p" />
<use x="372" y="516" xlink:href="#p" />
<use x="408" y="516" xlink:href="#p" />
<use x="456" y="516" xlink:href="#p" />
<use x="468" y="516" xlink:href="#p" />
<use x="504" y="516" xlink:href="#p" />
<use x="552" y="516" xlink:href="#p" />
<use x="588" y="516" xlink:href="#p" />
<use x="600" y="516" xlink:href="#p" />
<use x="24" y="528" xlink:href="#p" />
<use x="36" y="528" xlink:href="#p" />
<use x="48" y="528" xlink:href="#p" />
<use x="60" y="528" xlink:href="#p" />
<use x="72" y="528" xlink:href="#p" />
<use x="84" y="528" xlink:href="#p" />
<use x="96" y="528" xlink:href="#p" />
<use x="144" y="528" xlink:href="#p" />
<use x="168" y="528" xlink:href="#p" />
<use x="192" y="528" xlink:href="#p" />
<use x="204" y="528" xlink:href="#p" />
<use x="240" y="528" xlink:href="#p" />
<use x="264" y="528" xlink:href="#p" />
<use x="288" y="528" xlink:href="#p" />
<use x="312" y="528" xlink:href="#p" />
<use x="336" y="528" xlink:href="#p" />
<use x="348" y="528" xlink:href="#p" />
<use x="396" y="528" xlink:href="#p" />
<use x="444" y="528" xlink:href="#p" />
<use x="468" y="528" xlink:href="#p" />
<use x="492" y="528" xlink:href="#p" />
<use x="504" y="528" xlink:href="#p" />
<use x="528" y="528" xlink:href="#p" />
<use x="552" y="528" xlink:href="#p" />
<use x="576" y="528" xlink:href="#p" />
<use x="588" y="528" xlink:href="#p" />
<use x="600" y="528" xlink:href="#p" />
<use x="24" y="540" xlink:href="#p" />
<use x="96" y="540" xlink:href="#p" />
<use x="120" y="540" xlink:href="#p" />
<use x="144" y="540" xlink:href="#p" />
<use x="156" y="540" xlink:href="#p" />
<use x="240" y="540" xlink:href="#p" />
<use x="288" y="540" xlink:href="#p" />
<use x="336" y="540" xlink:href="#p" />
<use x="372" y="540" xlink:href="#p" />
<use x="384" y="540" xlink:href="#p" />
<use x="396" y="540" xlink:href="#p" />
<use x="420" y="540" xlink:href="#p" />
<use x="444" y="540" xlink:href="#p" />
<use x="456" y="540" xlink:href="#p" />
<use x="480" y="540" xlink:href="#p" />
<use x="492" y="540" xlink:href="#p" />
<use x="504" y="540" xlink:href="#p" />
<use x="552" y="540" xlink:href="#p" />
<use x="24" y="552" xlink:href="#p" />
<use x="48" y="552" xlink:href="#p" />
<use x="60" y="552" xlink:href="#p" />
<use x="72" y="552" xlink:href="#p" />
<use x="96" y="552" xlink:href="#p" />
<use x="120" y="552" xlink:href="#p" />
<use x="156" y="552" xlink:href="#p" />
<use x="216" y="552" xlink:href="#p" />
<use x="228" y="552" xlink:href="#p" />
<use x="240" y="552" xlink:href="#p" />
<use x="288" y="552" xlink:href="#p" />
<use x="300" y="552" xlink:href="#p" />
<use x="312" y="552" xlink:href="#p" />
<use x="324" y="552" xlink:href="#p" />
<use x="336" y="552" xlink:href="#p" />
<use x="372" y="552" xlink:href="#p" />
<use x="384" y="552" xlink:href="#p" />
<use x="396" y="552" xlink:href="#p" />
<use x="408" y="552" xlink:href="#p" />
<use x="420" y="552" xlink:href="#p" />
<use x="444" y="552" xlink:href="#p" />
<use x="456" y="552" xlink:href="#p" />
<use x="468" y="552" xlink:href="#p" />
<use x="504" y="552" xlink:href="#p" />
<use x="516" y="552" xlink:href="#p" />
<use x="528" y="552" xlink:href="#p" />
<use x="540" y="552" xlink:href="#p" />
<use x="552" y="552" xlink:href="#p" />
<use x="564" y="552" xlink:href="#p" />
<use x="588" y="552" xlink:href="#p" />
<use x="600" y="552" xlink:href="#p" />
<use x="24" y="564" xlink:href="#p" />
<use x="48" y="564" xlink:href="#p" />
<use x="60" y="564" xlink:href="#p" />
<use x="72" y="564" xlink:href="#p" />
<use x="96" y="564" xlink:href="#p" />
<use x="132" y="564" xlink:href="#p" />
<use x="144" y="564" xlink:href="#p" />
<use x="180" y="564" xlink:href="#p" />
<use x="204" y="564" xlink:href="#p" />
<use x="228" y="564" xlink:href="#p" />
<use x="240" y="564" xlink:href="#p" />
<use x="252" y="564" xlink:href="#p" />
<use x="264" y="564" xlink:href="#p" />
<use x="276" y="564" xlink:href="#p" />
<use x="288" y="564" xlink:href="#p" />
<use x="336" y="564" xlink:href="#p" />
<use x="360" y="564" xlink:href="#p" />
<use x="372" y="564" xlink:href="#p" />
<use x="384" y="564" xlink:href="#p" />
<use x="408" y="564" xlink:href="#p" />
<use x="456" y="564" xlink:href="#p" />
<use x="492" y="564" xlink:href="#p" />
<use x="504" y="564" xlink:href="#p" />
<use x="516" y="564" xlink:href="#p" />
<use x="540" y="564" xlink:href="#p" />
<use x="552" y="564" xlink:href="#p" />
<use x="564" y="564" xlink:href="#p" />
<use x="24" y="576" xlink:href="#p" />
<use x="48" y="576" xlink:href="#p" />
<use x="60" y="576" xlink:href="#p" />
<use x="72" y="576" xlink:href="#p" />
<use x="96" y="576" xlink:href="#p" />
<use x="120" y="576" xlink:href="#p" />
<use x="144" y="576" xlink:href="#p" />
<use x="156" y="576" xlink:href="#p" />
<use x="180" y="576" xlink:href="#p" />
<use x="192" y="576" xlink:href="#p" />
<use x="204" y="576" xlink:href="#p" />
<use x="216" y="576" xlink:href="#p" />
<use x="228" y="576" xlink:href="#p" />
<use x="252" y="576" xlink:href="#p" />
<use x="300" y="576" xlink:href="#p" />
<use x="312" y="576" xlink:href="#p" />
<use x="324" y="576" xlink:href="#p" />
<use x="336" y="576" xlink:href="#p" />
<use x="348" y="576" xlink:href="#p" />
<use x="384" y="576" xlink:href="#p" />
<use x="396" y="576" xlink:href="#p" />
<use x="444" y="576" xlink:href="#p" />
<use x="468" y="576" xlink:href="#p" />
<use x="492" y="576" xlink:href="#p" />
<use x="504" y="576" xlink:href="#p" />
<use x="516" y="576" xlink:href="#p" />
<use x="540" y="576" xlink:href="#p" />
<use x="552" y="576" xlink:href="#p" />
<use x="564" y="576" xlink:href="#p" />
<use x="588" y="576" xlink:href="#p" />
<use x="600" y="576" xlink:href="#p" />
<use x="24" y="588" xlink:href="#p" />
<use x="96" y="588" xlink:href="#p" />
<use x="144" y="588" xlink:href="#p" />
<use x="300" y="588" xlink:href="#p" />
<use x="312" y="588" xlink:href="#p" />
<use x="324" y="588" xlink:href="#p" />
<use x="372" y="588" xlink:href="#p" />
<use x="396" y="588" xlink:href="#p" />
<use x="408" y="588" xlink:href="#p" />
<use x="420" y="588" xlink:href="#p" />
<use x="444" y="588" xlink:href="#p" />
<use x="456" y="588" xlink:href="#p" />
<use x="504" y="588" xlink:href="#p" />
<use x="552" y="588" xlink:href="#p" />
<use x="588" y="588" xlink:href="#p" />
<use x="24" y="600" xlink:href="#p" />
<use x="36" y="600" xlink:href="#p" />
<use x="48" y="600" xlink:href="#p" />
<use x="60" y="600" xlink:href="#p" />
<use x="72" y="600" xlink:href="#p" />
<use x="84" y="600" xlink:href="#p" />
<use x="96" y="600" xlink:href="#p" />
<use x="132" y="600" xlink:href="#p" />
<use x="144" y="600" xlink:href="#p" />
<use x="156" y="600" xlink:href="#p" />
<use x="180" y="600" xlink:href="#p" />
<use x="192" y="600" xlink:href="#p" />
<use x="204" y="600" xlink:href="#p" />
<use x="228" y="600" xlink:href="#p" />
<use x="264" y="600" xlink:href="#p" />
<use x="312" y="600" xlink:href="#p" />
<use x="324" y="600" xlink:href="#p" />
<use x="360" y="600" xlink:href="#p" />
<use x="372" y="600" xlink:href="#p" />
<use x="396" y="600" xlink:href="#p" />
<use x="408" y="600" xlink:href="#p" />
<use x="420" y="600" xlink:href="#p" />
<use x="432" y="600" xlink:href="#p" />
<use x="444" y="600" xlink:href="#p" />
<use x="456" y="600" xlink:href="#p" />
<use x="468" y="600" xlink:href="#p" />
<use x="480" y="600" xlink:href="#p" />
<use x="492" y="600" xlink:href="#p" />
<use x="540" y="600" xlink:href="#p" />
<use x="588" y="600" xlink:href="#p" />
<use x="600" y="600" xlink:href="#p" />
</g>
</svg>